<svg width="95" height="22" viewBox="0 0 95 22" fill="none" xmlns="http://www.w3.org/2000/svg">
<path d="M78.3021 19.1424C77.4637 19.1424 76.8442 18.9422 76.4437 18.5417C76.0432 18.1412 75.843 17.5217 75.843 16.6832V14.6558C75.843 14.4681 75.7804 14.3086 75.6553 14.1771L74.2192 12.7317C73.6247 12.1435 73.3275 11.5678 73.3275 11.0046C73.3275 10.4415 73.6247 9.86267 74.2192 9.26822L75.6553 7.82276C75.7804 7.69136 75.843 7.53492 75.843 7.35346V5.31667C75.843 4.47192 76.0432 3.85244 76.4437 3.45823C76.8442 3.05775 77.4637 2.85752 78.3021 2.85752H80.3295C80.5235 2.85752 80.6831 2.79494 80.8082 2.66979L82.2537 1.23372C82.8481 0.639267 83.4238 0.342041 83.9807 0.342041C84.5439 0.342041 85.1227 0.639267 85.7172 1.23372L87.1626 2.66979C87.294 2.79494 87.4536 2.85752 87.6413 2.85752H89.6687C90.5135 2.85752 91.1329 3.06088 91.5272 3.46761C91.9276 3.86808 92.1279 4.48444 92.1279 5.31667V7.35346C92.1279 7.53492 92.1936 7.69136 92.325 7.82276L93.7517 9.26822C94.3461 9.86267 94.6433 10.4415 94.6433 11.0046C94.6496 11.5678 94.3524 12.1435 93.7517 12.7317L92.325 14.1771C92.1936 14.3086 92.1279 14.4681 92.1279 14.6558V16.6832C92.1279 17.528 91.9276 18.1475 91.5272 18.5417C91.1267 18.9422 90.5072 19.1424 89.6687 19.1424H87.6413C87.4536 19.1424 87.294 19.2081 87.1626 19.3395L85.7172 20.7756C85.1227 21.3638 84.5439 21.6579 83.9807 21.6579C83.4238 21.6641 82.8481 21.37 82.2537 20.7756L80.8082 19.3395C80.6831 19.2081 80.5235 19.1424 80.3295 19.1424H78.3021ZM78.3021 17.65H80.827C81.1148 17.65 81.3526 17.7501 81.5404 17.9504L83.3049 19.7243C83.6053 20.0184 83.8306 20.1655 83.9807 20.1655C84.1372 20.1655 84.3656 20.0184 84.6659 19.7243L86.4399 17.9504C86.6276 17.7501 86.8623 17.65 87.1439 17.65H89.6687C90.088 17.65 90.3539 17.5937 90.4665 17.4811C90.5792 17.3684 90.6355 17.1025 90.6355 16.6832V14.1584C90.6355 13.8831 90.7356 13.6484 90.9358 13.4544L92.7098 11.6898C93.0039 11.3895 93.151 11.1611 93.151 11.0046C93.151 10.8482 93.0039 10.6198 92.7098 10.3195L90.9358 8.55488C90.7356 8.35464 90.6355 8.11686 90.6355 7.84153V5.31667C90.6355 4.90368 90.5792 4.64087 90.4665 4.52824C90.3539 4.40935 90.088 4.3499 89.6687 4.3499H87.1439C86.8623 4.3499 86.6276 4.25291 86.4399 4.05894L84.6659 2.28496C84.3656 1.99087 84.1372 1.84382 83.9807 1.84382C83.8306 1.84382 83.6053 1.99087 83.3049 2.28496L81.5404 4.05894C81.3526 4.25291 81.1148 4.3499 80.827 4.3499H78.3021C77.8766 4.3499 77.6076 4.40622 77.4949 4.51885C77.3886 4.63149 77.3354 4.89743 77.3354 5.31667V7.84153C77.3354 8.11686 77.2384 8.35464 77.0444 8.55488L75.2704 10.3195C74.9701 10.6198 74.8199 10.8482 74.8199 11.0046C74.8199 11.1611 74.9701 11.3895 75.2704 11.6898L77.0444 13.4544C77.2384 13.6484 77.3354 13.8831 77.3354 14.1584V16.6832C77.3354 17.1025 77.3917 17.3684 77.5043 17.4811C77.617 17.5937 77.8829 17.65 78.3021 17.65Z" fill="#FF4225"/>
<path d="M83.1652 14.5525C82.8811 14.5525 82.6616 14.4566 82.4723 14.2439L80.372 11.8213C80.2042 11.6378 80.1482 11.4752 80.1482 11.2876C80.1482 10.8664 80.4753 10.5579 80.9186 10.5579C81.1725 10.5579 81.3576 10.6454 81.5211 10.8331L83.148 12.747L86.3759 7.83082C86.5566 7.55145 86.7503 7.4472 87.0472 7.4472C87.4905 7.4472 87.8219 7.75577 87.8219 8.17275C87.8219 8.32286 87.7703 8.48965 87.6541 8.66061L83.8796 14.2023C83.7161 14.4399 83.4751 14.5525 83.1652 14.5525Z" fill="#FF4225"/>
<path d="M61.5466 19.0311V6.9293H63.3219V8.76946H63.4518C63.6755 8.1705 64.076 7.68701 64.6533 7.31898C65.2378 6.94373 65.8909 6.7561 66.6125 6.7561C66.7496 6.7561 66.9192 6.75971 67.1213 6.76693C67.3233 6.76693 67.4785 6.77054 67.5867 6.77775V8.66122C67.5218 8.64678 67.3774 8.62513 67.1537 8.59627C66.93 8.5674 66.6919 8.55297 66.4393 8.55297C65.8548 8.55297 65.3316 8.67565 64.8698 8.921C64.4079 9.16636 64.0435 9.50192 63.7765 9.92768C63.5167 10.3534 63.3868 10.8405 63.3868 11.389V19.0311H61.5466Z" fill="#FF4225"/>
<path d="M54.7958 19.2947C53.634 19.2947 52.6273 19.0349 51.7757 18.5154C50.9314 17.9958 50.282 17.2706 49.8273 16.3396C49.3727 15.4015 49.1454 14.3155 49.1454 13.0815C49.1454 11.8403 49.3691 10.747 49.8165 9.80165C50.2639 8.85631 50.8917 8.11664 51.7 7.58263C52.5154 7.04862 53.468 6.78162 54.5576 6.78162C55.1855 6.78162 55.8097 6.88625 56.4303 7.09553C57.0509 7.3048 57.6138 7.64397 58.1189 8.11303C58.6313 8.58209 59.039 9.2027 59.3421 9.97484C59.6452 10.747 59.7967 11.6959 59.7967 12.8217V13.6227H50.466V12.0207H58.79L57.9349 12.6268C57.9349 11.8186 57.8086 11.1006 57.556 10.4728C57.3035 9.84495 56.9246 9.35063 56.4195 8.98981C55.9215 8.629 55.3009 8.44859 54.5576 8.44859C53.8144 8.44859 53.1757 8.63261 52.6417 9.00064C52.1149 9.36145 51.7108 9.83412 51.4294 10.4186C51.1479 11.0032 51.0072 11.631 51.0072 12.3021V13.3629C51.0072 14.2794 51.166 15.0551 51.4835 15.6902C51.801 16.3252 52.2448 16.8087 52.8149 17.1407C53.385 17.4654 54.0453 17.6278 54.7958 17.6278C55.2793 17.6278 55.7195 17.5592 56.1164 17.4221C56.5133 17.2778 56.856 17.0649 57.1447 16.7835C57.4334 16.4948 57.6535 16.1412 57.805 15.7227L59.6019 16.2422C59.4142 16.8484 59.0967 17.3824 58.6493 17.8443C58.2091 18.2989 57.6607 18.6561 57.004 18.9159C56.3473 19.1684 55.6112 19.2947 54.7958 19.2947Z" fill="#FF4225"/>
<path d="M41.8239 19.2927C40.8136 19.2927 39.9224 19.0365 39.1502 18.5242C38.3781 18.0118 37.7755 17.2866 37.3426 16.3484C36.9096 15.4031 36.6931 14.2918 36.6931 13.0145C36.6931 11.7444 36.9096 10.6439 37.3426 9.71303C37.7828 8.77491 38.3889 8.05327 39.1611 7.54813C39.9332 7.03577 40.828 6.77959 41.8455 6.77959C42.6393 6.77959 43.2636 6.90948 43.7182 7.16927C44.18 7.42906 44.5336 7.72493 44.779 8.05688C45.0243 8.38162 45.2156 8.64862 45.3527 8.85789H45.5042V2.90442H47.3444V19.0329H45.5692V17.1711H45.3527C45.2156 17.3876 45.0207 17.6654 44.7682 18.0046C44.5156 18.3365 44.1548 18.636 43.6857 18.903C43.2239 19.1628 42.6033 19.2927 41.8239 19.2927ZM42.062 17.6257C42.8125 17.6257 43.444 17.4309 43.9563 17.0412C44.4687 16.6443 44.8584 16.0995 45.1254 15.4067C45.3924 14.7067 45.5259 13.9021 45.5259 12.9929C45.5259 12.0836 45.396 11.2898 45.1362 10.6115C44.8764 9.92591 44.4867 9.39551 43.9672 9.02026C43.4548 8.63779 42.8198 8.44656 42.062 8.44656C41.2827 8.44656 40.6332 8.64862 40.1136 9.05273C39.5941 9.45685 39.2044 10.0017 38.9446 10.6872C38.6848 11.3728 38.5549 12.1413 38.5549 12.9929C38.5549 13.8516 38.6848 14.631 38.9446 15.3309C39.2116 16.0309 39.6049 16.5902 40.1245 17.0087C40.644 17.4201 41.2899 17.6257 42.062 17.6257Z" fill="#FF4225"/>
<path d="M27.1679 11.7609V19.0349H25.3277V6.93316H27.1029V8.83827H27.2761C27.5576 8.21767 27.9869 7.71974 28.5642 7.34449C29.1415 6.96924 29.8884 6.78162 30.8049 6.78162C31.6204 6.78162 32.3348 6.94759 32.9482 7.27954C33.5616 7.61149 34.0378 8.11664 34.377 8.79497C34.7234 9.46609 34.8966 10.3176 34.8966 11.3496V19.0349H33.0564V11.4794C33.0564 10.5341 32.8074 9.79443 32.3095 9.26042C31.8116 8.7192 31.1333 8.44859 30.2745 8.44859C29.6828 8.44859 29.1524 8.57848 28.6833 8.83827C28.2142 9.09806 27.8426 9.47331 27.5684 9.96402C27.3014 10.4547 27.1679 11.0537 27.1679 11.7609Z" fill="#FF4225"/>
<path d="M18.0389 19.2947C16.9493 19.2947 15.9931 19.0349 15.1704 18.5154C14.3478 17.9958 13.7055 17.2669 13.2437 16.3288C12.789 15.3907 12.5617 14.301 12.5617 13.0598C12.5617 11.797 12.789 10.6965 13.2437 9.75835C13.7055 8.81301 14.3478 8.08056 15.1704 7.56098C15.9931 7.0414 16.9493 6.78162 18.0389 6.78162C19.1358 6.78162 20.0956 7.0414 20.9182 7.56098C21.7409 8.08056 22.3832 8.81301 22.845 9.75835C23.3068 10.6965 23.5378 11.797 23.5378 13.0598C23.5378 14.301 23.3068 15.3907 22.845 16.3288C22.3832 17.2669 21.7409 17.9958 20.9182 18.5154C20.0956 19.0349 19.1358 19.2947 18.0389 19.2947ZM18.0389 17.6278C18.876 17.6278 19.5616 17.4149 20.0956 16.9891C20.6296 16.5634 21.0265 16.0041 21.2863 15.3113C21.5461 14.6113 21.676 13.8608 21.676 13.0598C21.676 12.2444 21.5461 11.4867 21.2863 10.7867C21.0265 10.0867 20.6296 9.52382 20.0956 9.09806C19.5616 8.66508 18.876 8.44859 18.0389 8.44859C17.2163 8.44859 16.5379 8.66508 16.0039 9.09806C15.4699 9.52382 15.073 10.0867 14.8132 10.7867C14.5534 11.4867 14.4235 12.2444 14.4235 13.0598C14.4235 13.8608 14.5534 14.6113 14.8132 15.3113C15.073 16.0041 15.4699 16.5634 16.0039 16.9891C16.5379 17.4149 17.2163 17.6278 18.0389 17.6278Z" fill="#FF4225"/>
<path d="M0 2.90442H2.22985L6.71119 10.4383H6.90603L11.3657 2.90442H13.6172L7.77199 12.3867V19.0329H5.82358V12.3867L0 2.90442Z" fill="#FF4225"/>
</svg>
